<?xml version="1.0" standalone="no"?>
<!DOCTYPE svg PUBLIC "-//W3C//DTD SVG 20010904//EN"
 "http://www.w3.org/TR/2001/REC-SVG-20010904/DTD/svg10.dtd">
<svg version="1.0" xmlns="http://www.w3.org/2000/svg"
 width="576.000000pt" height="576.000000pt" viewBox="0 0 576.000000 576.000000"
 preserveAspectRatio="xMidYMid meet">
<metadata>
Created by potrace 1.11, written by Peter Selinger 2001-2013
</metadata>
<g transform="translate(0.000000,576.000000) scale(0.100000,-0.100000)"
fill="#000000" stroke="none">
<path d="M380 4965 c-173 -37 -320 -177 -366 -350 -11 -40 -14 -298 -14 -1351
0 -1419 -3 -1340 56 -1456 33 -65 128 -159 193 -193 118 -59 101 -58 781 -60
344 -1 654 -5 690 -9 139 -14 167 -18 235 -27 84 -11 264 -54 320 -75 181 -71
238 -106 347 -217 82 -83 154 -205 199 -337 32 -95 50 -119 76 -101 6 3 20 38
33 76 126 382 371 571 845 649 210 34 313 39 965 41 663 2 654 1 764 57 105
53 210 181 243 298 13 42 15 2628 3 2686 -18 87 -65 171 -133 237 -57 57 -144
112 -192 121 -11 3 -39 9 -62 14 -47 11 -1587 9 -1643 -2 -299 -60 -539 -217
-702 -461 -38 -56 -104 -201 -118 -257 -14 -55 -25 -61 -34 -18 -14 75 -103
257 -156 324 -98 123 -160 181 -265 250 -71 47 -106 65 -182 97 -13 5 -33 13
-45 19 -31 13 -139 39 -191 47 -85 12 -1589 10 -1647 -2z m2014 -1169 l26 -6
0 -129 c0 -95 -4 -133 -13 -143 -18 -18 -1630 -19 -1648 -1 -13 13 -15 261 -2
274 4 4 22 9 38 11 58 6 1572 1 1599 -6z m2608 -4 c12 -12 11 -263 -1 -275 -5
-5 -376 -8 -826 -8 -656 0 -820 3 -827 13 -4 7 -7 69 -6 138 3 114 5 125 24
135 28 14 1621 12 1636 -3z m-1 -609 c13 -13 13 -263 -1 -277 -10 -10 -1605
-12 -1638 -2 -21 7 -22 12 -22 134 0 70 4 132 8 138 4 7 16 13 26 15 11 2 379
4 818 4 568 -1 801 -4 809 -12z m-2587 -9 c9 -24 7 -247 -3 -263 -7 -12 -140
-14 -826 -14 -494 0 -820 4 -826 10 -11 11 -15 255 -5 272 5 8 243 11 831 11
741 0 823 -2 829 -16z m-4 -604 c12 -19 13 -250 1 -268 -7 -11 -156 -14 -826
-14 -523 0 -821 4 -827 10 -16 16 -11 265 5 277 9 7 293 10 826 10 708 0 813
-2 821 -15z m2590 4 c14 -14 15 -263 1 -277 -14 -14 -1629 -11 -1647 3 -11 10
-14 40 -14 132 0 66 4 127 9 136 8 16 69 17 825 17 583 0 818 -3 826 -11z"/>
</g>
</svg>
